<svg xmlns="http://www.w3.org/2000/svg" viewBox="0 0 500 500"><g id="freepik--bars-chart--inject-1--inject-11"><polygon points="300.92 89.03 265.01 109.77 300.93 130.5 336.85 109.77 300.92 89.03" style="fill:#356BE4"></polygon><polygon points="300.92 89.03 265.01 109.77 300.93 130.5 336.85 109.77 300.92 89.03" style="opacity:0.30000000000000004"></polygon><polygon points="336.85 109.7 336.85 229.6 300.93 250.33 300.93 130.51 336.85 109.7" style="fill:#356BE4"></polygon><polygon points="336.85 109.7 336.85 229.6 300.93 250.33 300.93 130.51 336.85 109.7" style="opacity:0.4"></polygon><polygon points="300.93 130.51 300.93 250.33 265.01 229.59 265.01 109.77 300.93 130.51" style="fill:#356BE4"></polygon><polygon points="300.93 130.51 300.93 250.33 265.01 229.59 265.01 109.77 300.93 130.51" style="opacity:0.55"></polygon><polygon points="233.08 192.72 197.17 213.45 233.09 234.19 269 213.46 233.08 192.72" style="fill:#356BE4"></polygon><polygon points="233.08 192.72 197.17 213.45 233.09 234.19 269 213.46 233.08 192.72" style="fill:#fff;opacity:0.30000000000000004"></polygon><polygon points="269.01 213.46 269.01 268.76 233.09 289.5 233.09 234.19 269.01 213.46" style="fill:#356BE4"></polygon><polygon points="233.09 234.19 233.09 289.5 197.17 268.76 197.17 213.45 233.09 234.19" style="fill:#356BE4"></polygon><polygon points="233.09 234.19 233.09 289.5 197.17 268.76 197.17 213.45 233.09 234.19" style="opacity:0.1"></polygon><polygon points="165.24 162.77 129.32 183.51 165.24 204.24 201.15 183.5 165.24 162.77" style="fill:#356BE4"></polygon><polygon points="165.24 162.77 129.32 183.51 165.24 204.24 201.15 183.5 165.24 162.77" style="fill:#fff;opacity:0.7000000000000001"></polygon><polygon points="201.16 183.51 201.16 307.98 165.24 328.68 165.24 204.24 201.16 183.51" style="fill:#356BE4"></polygon><polygon points="201.16 183.51 201.16 307.98 165.24 328.68 165.24 204.24 201.16 183.51" style="fill:#fff;opacity:0.6000000000000001"></polygon><polygon points="165.24 204.24 165.24 328.68 129.32 307.94 129.32 183.51 165.24 204.24" style="fill:#356BE4"></polygon><polygon points="165.24 204.24 165.24 328.68 129.32 307.94 129.32 183.51 165.24 204.24" style="fill:#fff;opacity:0.4"></polygon><polygon points="97.39 229.58 61.48 250.33 97.4 271.07 133.31 250.34 97.39 229.58" style="fill:#455a64"></polygon><polygon points="133.32 250.26 133.32 347.1 97.4 367.84 97.39 271.08 133.32 250.26" style="fill:#37474f"></polygon><polygon points="97.39 271.08 97.4 367.84 61.48 347.1 61.48 250.26 97.39 271.08" style="fill:#263238"></polygon><path d="M304.92,68.3v9.21l-12.54-7.25a4.7,4.7,0,0,1-2.13-3.69V59.24Z" style="fill:#b16668"></path><path d="M332.55,82.4V91c0,1.36-.95,1.91-2.13,1.23L316.9,84.43V75.21Z" style="fill:#b16668"></path><path d="M171.56,151.48l1.66-2.54,66,60.55,3.07-.44-.05.08A2.4,2.4,0,0,1,239,210l-8.74-5a12.87,12.87,0,0,1-2.19-1.61Z" style="fill:#b16668"></path><polygon points="304.92 68.3 316.9 75.21 241.07 201.94 230.67 192.4 304.92 68.3" style="fill:#ffa8a7"></polygon><path d="M316.9,75.21v9.21L242.33,209.05a1.91,1.91,0,0,1-3.07.44L175,150.6a2,2,0,0,0-3.15.4l-58.52,89.42h0l-6.64,10.14,0,0a2.49,2.49,0,0,1-1.33,1v-9.21l1.35-1,6.63-10.14,58.53-89.44a2,2,0,0,1,3.15-.39l64.23,58.89a1.92,1.92,0,0,0,3.07-.44Z" style="fill:#f28f8f"></path><path d="M105.37,242.39v9.21a2.56,2.56,0,0,1-2.12-.2l-6.77-3.9-.06,0a4.72,4.72,0,0,1-2.06-3.65V236Z" style="fill:#b16668"></path><path d="M106.72,241.36l65.16-99.58a2.08,2.08,0,0,1,2.75-.68l-11.29-7a2.53,2.53,0,0,0-3.44.76L94.75,234.45a2.3,2.3,0,0,0,.78,3.28l7.72,4.46A2.63,2.63,0,0,0,106.72,241.36Z" style="fill:#ffa8a7"></path><path d="M291.09,60.31,330.73,83.2c1.18.68,2,.14,1.79-1.21l-4.88-35.21A1.86,1.86,0,0,0,325,45.23l-33.76,13C290,58.69,289.91,59.63,291.09,60.31Z" style="fill:#ffa8a7"></path></g></svg>